<?xml version="1.0" standalone="no"?>
<!DOCTYPE svg PUBLIC "-//W3C//DTD SVG 20010904//EN"
 "http://www.w3.org/TR/2001/REC-SVG-20010904/DTD/svg10.dtd">
<svg version="1.0" xmlns="http://www.w3.org/2000/svg"
 width="332.000000pt" height="377.000000pt" viewBox="0 0 332.000000 377.000000"
 preserveAspectRatio="xMidYMid meet">

<g transform="translate(0.000000,377.000000) scale(0.100000,-0.100000)"
fill="#ffffff" stroke="none">
<path d="M1602 3745 c-128 -59 -964 -531 -1383 -781 l-209 -125 -2 -649 c-2
-358 -3 -788 -3 -957 l0 -307 135 -79 c651 -382 1301 -750 1439 -815 l73 -35
97 47 c198 99 1045 578 1391 787 l155 94 7 120 c5 66 9 444 10 840 2 805 -4
924 -46 961 -90 79 -1386 825 -1569 903 l-45 19 -50 -23z m296 -423 c108 -60
375 -214 592 -342 217 -128 425 -249 462 -269 l68 -36 0 -790 0 -791 -122 -70
c-68 -39 -297 -172 -509 -297 -389 -227 -632 -363 -702 -392 l-37 -15 -133 68
c-125 66 -680 381 -1052 599 l-170 99 -6 75 c-4 41 -7 396 -8 790 l-1 716 202
116 c112 63 363 209 559 325 493 291 574 334 622 328 23 -2 113 -46 235 -114z"/>
<path d="M1205 2899 c-49 -5 -93 -10 -96 -11 -4 -2 24 -63 63 -135 l70 -133
281 0 c320 0 377 -8 486 -65 37 -20 93 -58 124 -85 l55 -50 17 -96 c22 -119
16 -220 -16 -290 -13 -27 -51 -77 -84 -111 -80 -80 -140 -100 -327 -108 -73
-4 -143 -8 -155 -11 -20 -4 -11 -23 119 -257 114 -205 307 -543 375 -654 13
-22 19 -23 163 -23 83 0 150 3 150 7 0 9 -202 390 -293 552 l-69 124 24 19
c12 10 67 48 122 84 122 81 172 132 220 223 53 102 78 205 79 331 0 159 -32
260 -129 396 -120 170 -295 258 -579 293 -103 13 -467 12 -600 0z"/>
<path d="M812 2163 c-8 -3 -10 -9 -4 -16 5 -7 65 -113 132 -237 156 -287 239
-427 305 -515 28 -38 99 -159 156 -267 l104 -198 157 0 158 0 -10 24 c-31 82
-249 468 -381 675 -30 46 -113 185 -184 310 l-130 226 -145 2 c-80 1 -151 -1
-158 -4z"/>
</g>
</svg>
