<?xml version="1.0" standalone="no"?>
<!DOCTYPE svg PUBLIC "-//W3C//DTD SVG 20010904//EN"
 "http://www.w3.org/TR/2001/REC-SVG-20010904/DTD/svg10.dtd">
<svg version="1.0" xmlns="http://www.w3.org/2000/svg"
 width="236.000000pt" height="139.000000pt" viewBox="0 0 736.000000 339.000000"
 preserveAspectRatio="xMidYMid meet">
<metadata>
Created by potrace 1.16, written by Peter Selinger 2001-2019
</metadata>
<g transform="translate(0.000000,339.000000) scale(0.100000,-0.100000)"
fill="#000000" stroke="none">
<path d="M2970 2007 c-35 -12 -60 -46 -60 -83 0 -12 15 -55 34 -96 19 -41 46
-119 61 -174 31 -113 47 -149 74 -164 12 -6 101 -10 219 -10 180 0 200 2 215
18 10 10 32 74 51 141 54 199 76 199 130 -3 22 -83 40 -134 52 -143 13 -10 68
-13 215 -13 247 0 233 -8 288 170 21 69 49 148 63 175 33 67 40 98 28 131 -21
54 -5 53 -565 51 -286 -1 -576 2 -645 6 -90 5 -135 3 -160 -6z"/>
</g>
</svg>
